<svg width="60" height="60" fill="none" xmlns="http://www.w3.org/2000/svg"><rect width="60" height="60" rx="2" fill="#DEC377"/><g clip-path="url(#clip0)"><path fill-rule="evenodd" clip-rule="evenodd" d="M36.333 14.458V30h3.778V20a.5.5 0 01.5-.5h4.876v.003a2.334 2.334 0 110 .997h-4.376V30h4.376l-.001.006a2.06 2.06 0 00-.005.023l.005-.023a2.334 2.334 0 11.001.994h-4.376v9.5h4.376a2.334 2.334 0 110 1h-4.876a.5.5 0 01-.5-.5V31h-3.778v15.542c0 .805-.653 1.458-1.458 1.458H14.458A1.459 1.459 0 0113 46.542V14.458c0-.805.653-1.458 1.458-1.458h20.417c.805 0 1.458.653 1.458 1.458zm-21.875 0v32.084h7.292v-5.834h5.833v5.834h7.292V14.458H14.458zm11.667 32.084h-2.917v-4.375h2.917v4.375zm-6.563-29.167h-2.916v2.917h2.916v-2.917zm4.375 0h-2.916v2.917h2.916v-2.917zm1.459 0h2.916v2.917h-2.916v-2.917zm7.291 0h-2.916v2.917h2.916v-2.917zm-7.291 5.833h2.916v2.917h-2.916v-2.917zm7.291 0h-2.916v2.917h2.916v-2.917zm-11.666 0h2.916v2.917h-2.916v-2.917zm-1.459 0h-2.916v2.917h2.916v-2.917zm-2.916 5.834h2.916v2.916h-2.916v-2.916zm7.291 0h-2.916v2.916h2.916v-2.916zm1.459 0h2.916v2.916h-2.916v-2.916zm7.291 0h-2.916v2.916h2.916v-2.916zm-2.916 5.833h2.916v2.917h-2.916v-2.917zm-1.459 0h-2.916v2.917h2.916v-2.917zm-11.666 0h2.916v2.917h-2.916v-2.917zm7.291 0h-2.916v2.917h2.916v-2.917zM49.1 20a1.333 1.333 0 11-2.667 0 1.333 1.333 0 012.667 0zm-1.333 11.833a1.333 1.333 0 100-2.667 1.333 1.333 0 000 2.667zm0 10.5a1.333 1.333 0 100-2.667 1.333 1.333 0 000 2.667z" fill="#fff"/></g><defs><clipPath id="clip0"><path fill="#fff" transform="translate(10 10)" d="M0 0h40v40H0z"/></clipPath></defs></svg>