<svg width="60" height="60" fill="none" xmlns="http://www.w3.org/2000/svg"><rect width="60" height="60" rx="2" fill="#DEC377"/><path d="M46.844 40.422a4.005 4.005 0 00-2.14-2.89c-3.032-1.516-9.454-3.673-9.735-3.766a.648.648 0 00-.25-.047h-.563a.741.741 0 00-.609.312l-1.812 2.422a.734.734 0 00-.141.563l1.703 11.734a.762.762 0 00.766.656h12.64a.733.733 0 00.547-.234.781.781 0 00.219-.547c-.016-.188-.11-5.156-.625-8.203zm-12.14 7.469L33.14 37.125l1.39-1.86h.047c.906.313 6.703 2.297 9.406 3.641a2.453 2.453 0 011.313 1.782c.375 2.234.531 5.671.578 7.203H34.703zm-8.251-13.844a.785.785 0 00-.61-.313h-.562a.707.707 0 00-.25.047c-.265.094-6.703 2.25-9.734 3.766a3.966 3.966 0 00-2.14 2.89c-.516 3.032-.61 8-.626 8.22a.78.78 0 00.219.546c.14.14.344.234.547.234h12.64a.786.786 0 00.766-.656l1.703-11.734a.718.718 0 00-.14-.563l-1.813-2.437zM25.297 47.89H14.094c.047-1.532.187-4.97.578-7.203A2.472 2.472 0 0116 38.906c2.719-1.36 8.516-3.343 9.422-3.64h.047l1.39 1.859-1.562 10.766z" fill="#fff"/><path d="M39 22a8.962 8.962 0 01-2.3 6.01A8.984 8.984 0 0130.064 31a8.984 8.984 0 01-6.759-2.992A8.962 8.962 0 0121 22.014a8.966 8.966 0 012.302-6.024 8.944 8.944 0 011.733-1.498A8.951 8.951 0 0130 13a9.014 9.014 0 013.773.827 8.993 8.993 0 012.925 2.162A8.96 8.96 0 0139 22zm-17.997 0h17.993" stroke="#fff" stroke-miterlimit="10" stroke-linecap="round" stroke-linejoin="round"/><path d="M30 30.996c2.8 0 5.072-4.028 5.072-8.996 0-4.969-2.271-8.997-5.072-8.997S24.928 17.031 24.928 22c0 4.968 2.27 8.996 5.072 8.996zm0 0V13.003" stroke="#fff" stroke-miterlimit="10" stroke-linecap="round" stroke-linejoin="round"/><path d="M36.7 15.99c-.679.449-1.507.83-2.444 1.118-1.257.386-2.71.608-4.256.608-1.547 0-3-.222-4.256-.608-.937-.289-1.765-.67-2.444-1.119a8.957 8.957 0 011.734-1.497A8.958 8.958 0 0130 13a9.014 9.014 0 013.773.827 8.982 8.982 0 012.24 1.477c.24.216.47.444.687.685v0zm0 12.02A8.983 8.983 0 0130.064 31a8.984 8.984 0 01-6.759-2.992c.677-.448 1.505-.828 2.439-1.116 1.257-.386 2.71-.608 4.256-.608 1.547 0 3 .22 4.257.608.936.288 1.764.669 2.443 1.118z" stroke="#fff" stroke-miterlimit="10" stroke-linecap="round" stroke-linejoin="round"/></svg>