<svg width="60" height="60" fill="none" xmlns="http://www.w3.org/2000/svg"><rect width="60" height="60" rx="2" fill="#DEC377"/><path d="M28.291 30.944a9.24 9.24 0 014.78 3.331 9.147 9.147 0 011.838 5.5v9.203H11v-9.203c0-2.051.685-3.959 1.838-5.5a9.265 9.265 0 014.78-3.33l.528-.153.397.384a6.33 6.33 0 004.413 1.79c.848 0 1.65-.166 2.38-.463a6.358 6.358 0 002.034-1.327l.393-.384.528.152zm-5.334-12.17c1.776 0 3.392.725 4.557 1.89l.004.005a6.435 6.435 0 011.89 4.557 6.437 6.437 0 01-1.89 4.562 6.437 6.437 0 01-4.561 1.89 6.424 6.424 0 01-4.558-1.89l-.004-.005a6.442 6.442 0 010-9.119 6.437 6.437 0 014.562-1.89zm3.23 3.221a4.571 4.571 0 00-3.23-1.33c-1.262 0-2.401.51-3.226 1.335a4.546 4.546 0 00-1.336 3.226 4.55 4.55 0 001.331 3.226l.005.004a4.553 4.553 0 003.226 1.332c1.261 0 2.4-.511 3.226-1.336a4.546 4.546 0 001.335-3.226c0-1.262-.51-2.405-1.331-3.23zm2.13 25.097l-.022-3.772a.94.94 0 011.882-.004l.022 3.776h2.828v-7.316a7.244 7.244 0 00-1.458-4.37 7.411 7.411 0 00-3.317-2.488 8.186 8.186 0 01-5.29 1.934 8.152 8.152 0 01-3.087-.603 8.322 8.322 0 01-2.205-1.331 7.411 7.411 0 00-3.317 2.488 7.272 7.272 0 00-1.458 4.37v7.316h2.841l-.022-3.772a.94.94 0 011.882-.004l.022 3.776h10.704-.005z" fill="#fff"/><path fill-rule="evenodd" clip-rule="evenodd" d="M45.63 26.882V43.87H34.908v-1.798h8.922V17.084h-1.84v6.157l-8.225-8.224-5.958 5.958a6.46 6.46 0 00-.288-.306l-.004-.005a6.48 6.48 0 00-1.058-.856l7.308-7.308 6.427 6.382v-3.596h5.438v9.079l3.37 3.37-1.258 1.259-2.112-2.112zm-23.73 4.71v1.285a6.348 6.348 0 001.797.046v-1.287a6.515 6.515 0 01-1.798-.045z" fill="#fff"/></svg>