<svg width="60" height="60" fill="none" xmlns="http://www.w3.org/2000/svg"><rect width="60" height="60" rx="2" fill="#DEC377"/><path d="M36.18 26.646l.02.005a11.91 11.91 0 016.145 4.148c1.484 1.92 2.367 4.3 2.367 6.869V49.15H13.67V37.668c0-2.57.883-4.95 2.368-6.869a11.91 11.91 0 016.144-4.148s0 0 0 0l.324-.092.082-.024.062.059.245.23 13.286-.178zm0 0h0m0 0h0m0 0l-.304-.087-.082-.024-.062.059-.245.23a9.057 9.057 0 01-2.897 1.835h0a9.278 9.278 0 01-3.4.639 9.277 9.277 0 01-3.399-.639h0a9.056 9.056 0 01-2.897-1.834l13.285-.18zm1.77 15.822l.001 5.194H20.433l-.001-5.194s0 0 0 0a.741.741 0 00-1.483 0v0l.002 5.194h-3.793V37.67c0-2.23.766-4.296 2.054-5.962A10.416 10.416 0 0122.2 28.2a10.543 10.543 0 003.05 1.844c1.219.48 2.55.744 3.941.744 1.39 0 2.723-.265 3.942-.744a10.53 10.53 0 003.049-1.844 10.42 10.42 0 014.988 3.508 9.712 9.712 0 012.055 5.962v9.993h-3.791l-.002-5.194s0 0 0 0a.741.741 0 00-1.482 0v0zm-5.196-6.681h-.15v1.488h4.994v-1.488h-4.844zm-6.67 7.161h0l-.04.256-.01.065.04.051.163.204h0l2.375 2.969h0l.462.576.116.147.118-.147.461-.576h0l2.376-2.968h0l.163-.205.041-.051-.01-.065-.04-.256h0l-1.782-11.281h0l-.08-.504-.02-.127h-2.452l-.02.127-.08.504h0l-1.781 11.281zm7.814-28.726h0a6.286 6.286 0 011.938 4.53 6.29 6.29 0 01-1.937 4.53h0a6.74 6.74 0 01-4.707 1.883 6.742 6.742 0 01-4.707-1.883h0a6.286 6.286 0 01-1.938-4.53c0-1.767.74-3.37 1.938-4.53h0a6.74 6.74 0 014.707-1.884 6.74 6.74 0 014.706 1.884zM27.6 42.856l1.591-10.083 1.593 10.083-1.593 1.99-1.591-1.99zm9.725-24.104c0-2.185-.916-4.165-2.391-5.594a8.23 8.23 0 00-5.742-2.308 8.23 8.23 0 00-5.742 2.308c-1.476 1.43-2.391 3.409-2.391 5.594 0 2.186.915 4.166 2.39 5.595a8.23 8.23 0 005.743 2.308 8.23 8.23 0 005.742-2.309c1.476-1.429 2.39-3.408 2.39-5.594z" fill="#fff" stroke="#fff" stroke-width=".3"/></svg>