<svg width="60" height="60" fill="none" xmlns="http://www.w3.org/2000/svg"><rect width="60" height="60" rx="2" fill="#DEC377"/><g clip-path="url(#clip0)"><mask id="a" maskUnits="userSpaceOnUse" x="12.277" y="9" width="33" height="40" fill="#000"><path fill="#fff" d="M12.277 9h33v40h-33z"/><path d="M28.113 17.144l.12-.007a15.394 15.394 0 0111.698 4.501l.001.002.002-.002a15.398 15.398 0 014.522 10.92c0 4.262-1.729 8.123-4.522 10.916l-.003.003A15.393 15.393 0 0129.014 48c-4.264 0-8.126-1.73-10.92-4.523l-.034-.037a15.395 15.395 0 01-4.488-10.884 15.433 15.433 0 012.42-8.296c-1.095-1.862-2.054-3.672-2.497-5.058l-.013-.05-.001-.009-.002-.01a7.354 7.354 0 01-.202-1.711 7.4 7.4 0 012.175-5.246l.001-.002h.002A7.4 7.4 0 0120.699 10a7.4 7.4 0 015.245 2.175h.002l.001.002a7.396 7.396 0 012.168 4.967h-.002zm-7.415-3.16a3.07 3.07 0 012.173.9l.002.003a3.071 3.071 0 010 4.349l-.035.033a3.071 3.071 0 01-5.217-2.209c0-.848.345-1.618.902-2.174l-.002-.002a3.071 3.071 0 012.177-.9zm1.336 1.738a1.88 1.88 0 00-1.336-.55c-.521 0-.994.212-1.337.553l-.001-.001-.002.001a1.88 1.88 0 00-.55 1.336 1.89 1.89 0 001.89 1.89c.509 0 .971-.199 1.307-.523l.027-.03c.342-.342.554-.814.554-1.337s-.21-.996-.55-1.336l-.004-.003h.002zm-4.849 8.23l.005.007.002.005.007.012.008.012.005.013a142.835 142.835 0 001.675 2.73l.52.826c.46.734.9 1.432 1.289 2.07.39-.637.827-1.336 1.29-2.07l.516-.824a.581.581 0 01.054-.087c1.647-2.63 3.44-5.577 4.137-7.575l.017-.051.002-.003.004-.013.048-.145a6.11 6.11 0 00.12-.69v-.009a6.2 6.2 0 00.042-.738 6.212 6.212 0 00-1.823-4.408l-.002-.003a6.213 6.213 0 00-4.408-1.823 6.213 6.213 0 00-4.407 1.823l-.003.003a6.212 6.212 0 00-1.823 4.408c0 .254.014.5.043.738v.002c.028.244.07.478.12.697.436 1.356 1.43 3.199 2.558 5.093h.004zm-.505 1.456c-.19.326-.366.66-.53 1h1.145l-.615-1zm1.356 2.189h-2.39a14.27 14.27 0 00-.884 4.958 14.24 14.24 0 00.888 4.96h5.077a17.803 17.803 0 01-.637-6.61c-.456-.768-1.048-1.709-1.682-2.718l-.372-.592v.002zm3.236 3.37a16.624 16.624 0 00.692 6.547h6.458v-9.917H23.36l-.37.59c-.652 1.038-1.256 2-1.718 2.78zm2.83-4.56h4.319v-7.234c-.23.144-.451.29-.663.439-.694 1.883-2.182 4.414-3.656 6.794v.001zm6.476-8.02a16.216 16.216 0 015.353 5.82c.387.71.718 1.446.998 2.2h4.95a14.329 14.329 0 00-2.783-3.932v-.001a14.222 14.222 0 00-8.518-4.088zm6.743 9.208a17.838 17.838 0 01-.016 9.92h5.08a14.22 14.22 0 00.886-4.96c0-1.743-.313-3.415-.887-4.958h-5.062l-.001-.002zm-.41 11.106a16.88 16.88 0 01-.95 2.104 16.366 16.366 0 01-5.398 5.92 14.212 14.212 0 008.534-4.09A14.274 14.274 0 0041.88 38.7h-4.969zm-7.3 7.23a15.195 15.195 0 005.306-5.688c.27-.501.511-1.017.723-1.542h-6.03v7.23zm6.457-8.418a16.599 16.599 0 00.019-9.919H29.61v9.918h6.459v.001zm-.407-11.106a15.672 15.672 0 00-.77-1.635 15.015 15.015 0 00-5.28-5.6v7.235h6.05zM22.392 38.701c.177.437.373.866.59 1.287a15.211 15.211 0 005.44 5.944v-7.23h-6.03zm5.077 8.024a16.356 16.356 0 01-5.542-6.195v-.001a17.07 17.07 0 01-.805-1.828h-4.97a14.295 14.295 0 002.754 3.904l.031.028a14.213 14.213 0 008.532 4.092z"/></mask><path d="M28.113 17.144l.12-.007a15.394 15.394 0 0111.698 4.501l.001.002.002-.002a15.398 15.398 0 014.522 10.92c0 4.262-1.729 8.123-4.522 10.916l-.003.003A15.393 15.393 0 0129.014 48c-4.264 0-8.126-1.73-10.92-4.523l-.034-.037a15.395 15.395 0 01-4.488-10.884 15.433 15.433 0 012.42-8.296c-1.095-1.862-2.054-3.672-2.497-5.058l-.013-.05-.001-.009-.002-.01a7.354 7.354 0 01-.202-1.711 7.4 7.4 0 012.175-5.246l.001-.002h.002A7.4 7.4 0 0120.699 10a7.4 7.4 0 015.245 2.175h.002l.001.002a7.396 7.396 0 012.168 4.967h-.002zm-7.415-3.16a3.07 3.07 0 012.173.9l.002.003a3.071 3.071 0 010 4.349l-.035.033a3.071 3.071 0 01-5.217-2.209c0-.848.345-1.618.902-2.174l-.002-.002a3.071 3.071 0 012.177-.9zm1.336 1.738a1.88 1.88 0 00-1.336-.55c-.521 0-.994.212-1.337.553l-.001-.001-.002.001a1.88 1.88 0 00-.55 1.336 1.89 1.89 0 001.89 1.89c.509 0 .971-.199 1.307-.523l.027-.03c.342-.342.554-.814.554-1.337s-.21-.996-.55-1.336l-.004-.003h.002zm-4.849 8.23l.005.007.002.005.007.012.008.012.005.013a142.835 142.835 0 001.675 2.73l.52.826c.46.734.9 1.432 1.289 2.07.39-.637.827-1.336 1.29-2.07l.516-.824a.581.581 0 01.054-.087c1.647-2.63 3.44-5.577 4.137-7.575l.017-.051.002-.003.004-.013.048-.145a6.11 6.11 0 00.12-.69v-.009a6.2 6.2 0 00.042-.738 6.212 6.212 0 00-1.823-4.408l-.002-.003a6.213 6.213 0 00-4.408-1.823 6.213 6.213 0 00-4.407 1.823l-.003.003a6.212 6.212 0 00-1.823 4.408c0 .254.014.5.043.738v.002c.028.244.07.478.12.697.436 1.356 1.43 3.199 2.558 5.093h.004zm-.505 1.456c-.19.326-.366.66-.53 1h1.145l-.615-1zm1.356 2.189h-2.39a14.27 14.27 0 00-.884 4.958 14.24 14.24 0 00.888 4.96h5.077a17.803 17.803 0 01-.637-6.61c-.456-.768-1.048-1.709-1.682-2.718l-.372-.592v.002zm3.236 3.37a16.624 16.624 0 00.692 6.547h6.458v-9.917H23.36l-.37.59c-.652 1.038-1.256 2-1.718 2.78zm2.83-4.56h4.319v-7.234c-.23.144-.451.29-.663.439-.694 1.883-2.182 4.414-3.656 6.794v.001zm6.476-8.02a16.216 16.216 0 015.353 5.82c.387.71.718 1.446.998 2.2h4.95a14.329 14.329 0 00-2.783-3.932v-.001a14.222 14.222 0 00-8.518-4.088zm6.743 9.208a17.838 17.838 0 01-.016 9.92h5.08a14.22 14.22 0 00.886-4.96c0-1.743-.313-3.415-.887-4.958h-5.062l-.001-.002zm-.41 11.106a16.88 16.88 0 01-.95 2.104 16.366 16.366 0 01-5.398 5.92 14.212 14.212 0 008.534-4.09A14.274 14.274 0 0041.88 38.7h-4.969zm-7.3 7.23a15.195 15.195 0 005.306-5.688c.27-.501.511-1.017.723-1.542h-6.03v7.23zm6.457-8.418a16.599 16.599 0 00.019-9.919H29.61v9.918h6.459v.001zm-.407-11.106a15.672 15.672 0 00-.77-1.635 15.015 15.015 0 00-5.28-5.6v7.235h6.05zM22.392 38.701c.177.437.373.866.59 1.287a15.211 15.211 0 005.44 5.944v-7.23h-6.03zm5.077 8.024a16.356 16.356 0 01-5.542-6.195v-.001a17.07 17.07 0 01-.805-1.828h-4.97a14.295 14.295 0 002.754 3.904l.031.028a14.213 14.213 0 008.532 4.092z" fill="#fff"/><path d="M28.113 17.144l.12-.007a15.394 15.394 0 0111.698 4.501l.001.002.002-.002a15.398 15.398 0 014.522 10.92c0 4.262-1.729 8.123-4.522 10.916l-.003.003A15.393 15.393 0 0129.014 48c-4.264 0-8.126-1.73-10.92-4.523l-.034-.037a15.395 15.395 0 01-4.488-10.884 15.433 15.433 0 012.42-8.296c-1.095-1.862-2.054-3.672-2.497-5.058l-.013-.05-.001-.009-.002-.01a7.354 7.354 0 01-.202-1.711 7.4 7.4 0 012.175-5.246l.001-.002h.002A7.4 7.4 0 0120.699 10a7.4 7.4 0 015.245 2.175h.002l.001.002a7.396 7.396 0 012.168 4.967h-.002zm-7.415-3.16a3.07 3.07 0 012.173.9l.002.003a3.071 3.071 0 010 4.349l-.035.033a3.071 3.071 0 01-5.217-2.209c0-.848.345-1.618.902-2.174l-.002-.002a3.071 3.071 0 012.177-.9zm1.336 1.738a1.88 1.88 0 00-1.336-.55c-.521 0-.994.212-1.337.553l-.001-.001-.002.001a1.88 1.88 0 00-.55 1.336 1.89 1.89 0 001.89 1.89c.509 0 .971-.199 1.307-.523l.027-.03c.342-.342.554-.814.554-1.337s-.21-.996-.55-1.336l-.004-.003h.002zm-4.849 8.23l.005.007.002.005.007.012.008.012.005.013a142.835 142.835 0 001.675 2.73l.52.826c.46.734.9 1.432 1.289 2.07.39-.637.827-1.336 1.29-2.07l.516-.824a.581.581 0 01.054-.087c1.647-2.63 3.44-5.577 4.137-7.575l.017-.051.002-.003.004-.013.048-.145a6.11 6.11 0 00.12-.69v-.009a6.2 6.2 0 00.042-.738 6.212 6.212 0 00-1.823-4.408l-.002-.003a6.213 6.213 0 00-4.408-1.823 6.213 6.213 0 00-4.407 1.823l-.003.003a6.212 6.212 0 00-1.823 4.408c0 .254.014.5.043.738v.002c.028.244.07.478.12.697.436 1.356 1.43 3.199 2.558 5.093h.004zm-.505 1.456c-.19.326-.366.66-.53 1h1.145l-.615-1zm1.356 2.189h-2.39a14.27 14.27 0 00-.884 4.958 14.24 14.24 0 00.888 4.96h5.077a17.803 17.803 0 01-.637-6.61c-.456-.768-1.048-1.709-1.682-2.718l-.372-.592v.002zm3.236 3.37a16.624 16.624 0 00.692 6.547h6.458v-9.917H23.36l-.37.59c-.652 1.038-1.256 2-1.718 2.78zm2.83-4.56h4.319v-7.234c-.23.144-.451.29-.663.439-.694 1.883-2.182 4.414-3.656 6.794v.001zm6.476-8.02a16.216 16.216 0 015.353 5.82c.387.71.718 1.446.998 2.2h4.95a14.329 14.329 0 00-2.783-3.932v-.001a14.222 14.222 0 00-8.518-4.088zm6.743 9.208a17.838 17.838 0 01-.016 9.92h5.08a14.22 14.22 0 00.886-4.96c0-1.743-.313-3.415-.887-4.958h-5.062l-.001-.002zm-.41 11.106a16.88 16.88 0 01-.95 2.104 16.366 16.366 0 01-5.398 5.92 14.212 14.212 0 008.534-4.09A14.274 14.274 0 0041.88 38.7h-4.969zm-7.3 7.23a15.195 15.195 0 005.306-5.688c.27-.501.511-1.017.723-1.542h-6.03v7.23zm6.457-8.418a16.599 16.599 0 00.019-9.919H29.61v9.918h6.459v.001zm-.407-11.106a15.672 15.672 0 00-.77-1.635 15.015 15.015 0 00-5.28-5.6v7.235h6.05zM22.392 38.701c.177.437.373.866.59 1.287a15.211 15.211 0 005.44 5.944v-7.23h-6.03v0zm5.077 8.024a16.356 16.356 0 01-5.542-6.195v-.001a17.07 17.07 0 01-.805-1.828h-4.97a14.295 14.295 0 002.754 3.904l.031.028a14.213 14.213 0 008.532 4.092z" stroke="#fff" stroke-width=".4" mask="url(#a)"/></g><defs><clipPath id="clip0"><path fill="#fff" transform="translate(10 10)" d="M0 0h40v40H0z"/></clipPath></defs></svg>