<svg width="60" height="60" fill="none" xmlns="http://www.w3.org/2000/svg"><rect width="60" height="60" rx="2" fill="#DEC377"/><path d="M33.104 34.439a7.363 7.363 0 013.809 2.654 7.289 7.289 0 011.465 4.383v7.334H19.324v-7.333c0-1.636.546-3.156 1.464-4.384a7.383 7.383 0 013.81-2.654l.42-.122.317.306a5.043 5.043 0 005.413 1.058 5.066 5.066 0 001.622-1.058l.313-.306.42.122zm-4.252-9.7c1.416 0 2.703.578 3.632 1.507l.004.003a5.128 5.128 0 011.506 3.632 5.13 5.13 0 01-1.506 3.636 5.13 5.13 0 01-3.636 1.506 5.12 5.12 0 01-3.631-1.506l-.004-.004a5.134 5.134 0 010-7.267 5.13 5.13 0 013.635-1.506zm2.575 2.568a3.643 3.643 0 00-5.145.003 3.623 3.623 0 00-1.065 2.571c0 1.006.407 1.917 1.061 2.571l.004.004a3.628 3.628 0 002.57 1.06 3.623 3.623 0 002.571-1.064 3.643 3.643 0 00.003-5.145zm1.697 20l-.017-3.006a.75.75 0 011.5-.003l.017 3.01h2.254v-5.831a5.772 5.772 0 00-1.162-3.483 5.907 5.907 0 00-2.644-1.983 6.524 6.524 0 01-6.676 1.061 6.629 6.629 0 01-1.756-1.06 5.907 5.907 0 00-2.645 1.982 5.795 5.795 0 00-1.161 3.483v5.83h2.264l-.017-3.006a.75.75 0 011.5-.003l.017 3.01h8.53-.004z" fill="#fff"/><path fill-rule="evenodd" clip-rule="evenodd" d="M17.91 28.647c.92 0 1.75.372 2.352.974l.004.003c.602.602.974 1.434.974 2.352 0 .919-.372 1.753-.974 2.355a.655.655 0 01.23.032 4.655 4.655 0 011.926 1.13 7.438 7.438 0 00-1.136.996 3.128 3.128 0 00-1.208-.68.749.749 0 01-.508-.932l-.003-.007a3.335 3.335 0 01-1.656.442c-.602 0-1.17-.16-1.66-.445v.004a.754.754 0 01-.508.932 3.145 3.145 0 00-1.62 1.13 3.107 3.107 0 00-.62 1.862v3.117h.713l-.007-1.454a.75.75 0 011.5-.004l.007 1.461h3.602v1.5H12v-4.62c0-1.03.344-1.99.925-2.763a4.631 4.631 0 012.4-1.67.767.767 0 01.234-.03l-.004-.004a3.32 3.32 0 010-4.707 3.324 3.324 0 012.356-.974zm1.295 2.038a1.839 1.839 0 00-1.294-.532c-.505 0-.964.205-1.291.536a1.826 1.826 0 00-.004 2.581l.004.004a1.825 1.825 0 002.581-.004c.33-.33.536-.786.536-1.29a1.84 1.84 0 00-.532-1.295zm9.537-16.481h18.054v31.294h-8.425V46.7h8.425c.665 0 1.204-.539 1.204-1.203V14.204c0-.665-.539-1.204-1.204-1.204H28.742c-.665 0-1.203.539-1.203 1.204v10.832h1.203V14.204z" fill="#fff"/><path d="M39.575 18.717c0-.498.404-.902.902-.902h1.806a.903.903 0 110 1.805h-1.806a.903.903 0 01-.902-.903zm0 5.416c0-.498.404-.902.902-.902h1.806a.903.903 0 110 1.805h-1.806a.903.903 0 01-.902-.903zm0 10.833c0-.499.404-.903.902-.903h1.806a.903.903 0 110 1.806h-1.806a.903.903 0 01-.902-.903zm0-5.416c0-.5.404-.903.902-.903h1.806a.903.903 0 110 1.805h-1.806a.903.903 0 01-.902-.903z" fill="#fff"/><path fill-rule="evenodd" clip-rule="evenodd" d="M32.616 34.33l.374.108a7.32 7.32 0 012.514 1.315.903.903 0 00-.443-1.69h-1.805a.9.9 0 00-.64.267zm1.347-3.878a5.18 5.18 0 00-.117-1.805h1.215a.903.903 0 110 1.805h-1.098z" fill="#fff"/><path d="M39.575 40.382c0-.499.404-.903.902-.903h1.806a.903.903 0 010 1.806h-1.806a.903.903 0 01-.902-.903zm-7.222-21.665c0-.498.404-.902.903-.902h1.805a.903.903 0 110 1.805h-1.805a.903.903 0 01-.903-.903zm0 5.416c0-.498.404-.902.903-.902h1.805a.903.903 0 010 1.805h-1.805a.903.903 0 01-.903-.903z" fill="#fff"/></svg>