<svg width="60" height="60" fill="none" xmlns="http://www.w3.org/2000/svg"><rect width="60" height="60" rx="2" fill="#DEC377"/><path d="M34.712 27.004v0h-.1.1zm0 0V25.26m0 1.745V25.26m0 0a5.962 5.962 0 00-1.746-4.216m1.746 4.216l-1.746-4.216m0 0a5.962 5.962 0 00-4.216-1.746m4.216 1.746l-4.216-1.746m0 0a5.962 5.962 0 00-4.215 1.746m4.215-1.746l-4.215 1.746m0 0a5.962 5.962 0 00-1.746 4.216m1.746-4.216l-1.746 4.216m0 0v1.745m0-1.745v1.745m0 0s0 0 0 0v0zm.725.725h10.473-10.473 0zm.725-2.47a4.511 4.511 0 119.023 0v1.02H24.24v-1.02z" fill="#fff" stroke="#fff" stroke-width=".2"/><mask id="a" maskUnits="userSpaceOnUse" x="10.251" y="10.25" width="39" height="39" fill="#000"><path fill="#fff" d="M10.251 10.25h39v39h-39z"/><path d="M42.757 30.637v-4.175h2.868a.625.625 0 00.617-.723 15.789 15.789 0 00-3.485-6.924v-6.94a.625.625 0 00-.625-.625h-5.82a.625.625 0 00-.624.625v1.564a28.43 28.43 0 00-6.82-2.178.639.639 0 00-.236 0C13.248 14.223 11.276 25.625 11.258 25.74a.625.625 0 00.617.723h2.869v15.043h-1.125a.623.623 0 00-.625.625v3.494a.625.625 0 00.625.625H33.02a9.366 9.366 0 0015.248-9.842 9.368 9.368 0 00-5.511-5.771zm-27.388-5.425h-2.7c.7-2.433 3.88-10.305 16.081-12.7a26.422 26.422 0 017.27 2.491.625.625 0 00.918-.553V12.5h4.569v6.544c0 .148.053.292.149.405a15.834 15.834 0 013.175 5.763h-2.7a.625.625 0 00-.624.625v4.407c-.044-.01-.089-.013-.132-.023a9.203 9.203 0 00-1.044-.166 9.417 9.417 0 00-.956-.055 9.24 9.24 0 00-4.85 1.363.617.617 0 00-.537-.325h-5.223l-.015-.003-.015.003h-5.222a.626.626 0 00-.625.625v9.843h-6.894V25.837a.625.625 0 00-.625-.625zm17.297 7.63a9.45 9.45 0 00-.389.426c-.1.116-.202.231-.296.352-.119.15-.227.307-.336.464-.086.125-.174.249-.253.378-.102.164-.192.333-.282.502-.07.132-.145.262-.209.397-.084.177-.155.36-.227.542-.054.136-.113.268-.16.406-.067.194-.12.394-.173.593-.036.133-.079.262-.11.397-.05.224-.082.454-.116.683-.017.114-.043.226-.055.341-.04.35-.06.7-.06 1.052a9.415 9.415 0 00.086 1.216c.034.263.08.525.136.784.009.043.012.088.022.131h-.869v-9.218h3.87c-.086.074-.161.157-.245.233-.113.105-.226.21-.334.32zm-8.528 8.664v-9.218h3.987v9.218h-3.987zM14.244 45v-2.244h14.494l.012.003c.005 0 .008-.003.012-.003h1.867c.08.203.165.403.258.6l.014.027c.143.297.3.586.473.866l.082.137c.134.21.272.415.422.614H14.244zm25.131 2.5a8.12 8.12 0 01-5.4-14.187 8.145 8.145 0 016.052-2.037 8.126 8.126 0 01-.652 16.224z"/></mask><path d="M42.757 30.637v-4.175h2.868a.625.625 0 00.617-.723 15.789 15.789 0 00-3.485-6.924v-6.94a.625.625 0 00-.625-.625h-5.82a.625.625 0 00-.624.625v1.564a28.43 28.43 0 00-6.82-2.178.639.639 0 00-.236 0C13.248 14.223 11.276 25.625 11.258 25.74a.625.625 0 00.617.723h2.869v15.043h-1.125a.623.623 0 00-.625.625v3.494a.625.625 0 00.625.625H33.02a9.366 9.366 0 0015.248-9.842 9.368 9.368 0 00-5.511-5.771zm-27.388-5.425h-2.7c.7-2.433 3.88-10.305 16.081-12.7a26.422 26.422 0 017.27 2.491.625.625 0 00.918-.553V12.5h4.569v6.544c0 .148.053.292.149.405a15.834 15.834 0 013.175 5.763h-2.7a.625.625 0 00-.624.625v4.407c-.044-.01-.089-.013-.132-.023a9.203 9.203 0 00-1.044-.166 9.417 9.417 0 00-.956-.055 9.24 9.24 0 00-4.85 1.363.617.617 0 00-.537-.325h-5.223l-.015-.003-.015.003h-5.222a.626.626 0 00-.625.625v9.843h-6.894V25.837a.625.625 0 00-.625-.625zm17.297 7.63a9.45 9.45 0 00-.389.426c-.1.116-.202.231-.296.352-.119.15-.227.307-.336.464-.086.125-.174.249-.253.378-.102.164-.192.333-.282.502-.07.132-.145.262-.209.397-.084.177-.155.36-.227.542-.054.136-.113.268-.16.406-.067.194-.12.394-.173.593-.036.133-.079.262-.11.397-.05.224-.082.454-.116.683-.017.114-.043.226-.055.341-.04.35-.06.7-.06 1.052a9.415 9.415 0 00.086 1.216c.034.263.08.525.136.784.009.043.012.088.022.131h-.869v-9.218h3.87c-.086.074-.161.157-.245.233-.113.105-.226.21-.334.32zm-8.528 8.664v-9.218h3.987v9.218h-3.987zM14.244 45v-2.244h14.494l.012.003c.005 0 .008-.003.012-.003h1.867c.08.203.165.403.258.6l.014.027c.143.297.3.586.473.866l.082.137c.134.21.272.415.422.614H14.244zm25.131 2.5a8.12 8.12 0 01-5.4-14.187 8.145 8.145 0 016.052-2.037 8.126 8.126 0 01-.652 16.224z" fill="#fff"/><path d="M42.757 30.637v-4.175h2.868a.625.625 0 00.617-.723 15.789 15.789 0 00-3.485-6.924v-6.94a.625.625 0 00-.625-.625h-5.82a.625.625 0 00-.624.625v1.564a28.43 28.43 0 00-6.82-2.178.639.639 0 00-.236 0C13.248 14.223 11.276 25.625 11.258 25.74a.625.625 0 00.617.723h2.869v15.043h-1.125a.623.623 0 00-.625.625v3.494a.625.625 0 00.625.625H33.02a9.366 9.366 0 0015.248-9.842 9.368 9.368 0 00-5.511-5.771zm-27.388-5.425h-2.7c.7-2.433 3.88-10.305 16.081-12.7a26.422 26.422 0 017.27 2.491.625.625 0 00.918-.553V12.5h4.569v6.544c0 .148.053.292.149.405a15.834 15.834 0 013.175 5.763h-2.7a.625.625 0 00-.624.625v4.407c-.044-.01-.089-.013-.132-.023a9.203 9.203 0 00-1.044-.166 9.417 9.417 0 00-.956-.055 9.24 9.24 0 00-4.85 1.363.617.617 0 00-.537-.325h-5.223l-.015-.003-.015.003h-5.222a.626.626 0 00-.625.625v9.843h-6.894V25.837a.625.625 0 00-.625-.625zm17.297 7.63a9.45 9.45 0 00-.389.426c-.1.116-.202.231-.296.352-.119.15-.227.307-.336.464-.086.125-.174.249-.253.378-.102.164-.192.333-.282.502-.07.132-.145.262-.209.397-.084.177-.155.36-.227.542-.054.136-.113.268-.16.406-.067.194-.12.394-.173.593-.036.133-.079.262-.11.397-.05.224-.082.454-.116.683-.017.114-.043.226-.055.341-.04.35-.06.7-.06 1.052a9.415 9.415 0 00.086 1.216c.034.263.08.525.136.784.009.043.012.088.022.131h-.869v-9.218h3.87c-.086.074-.161.157-.245.233-.113.105-.226.21-.334.32zm-8.528 8.664v-9.218h3.987v9.218h-3.987zM14.244 45v-2.244h14.494l.012.003c.005 0 .008-.003.012-.003h1.867c.08.203.165.403.258.6l.014.027c.143.297.3.586.473.866l.082.137c.134.21.272.415.422.614H14.244zm25.131 2.5a8.12 8.12 0 01-5.4-14.187 8.145 8.145 0 016.052-2.037 8.126 8.126 0 01-.652 16.224z" stroke="#fff" stroke-width=".4" mask="url(#a)"/><path d="M38.887 40.245h1.222m-1.222 0a2.577 2.577 0 01-.136-5.15V33.75a.625.625 0 111.25 0v1.232h.1m-1.214 5.263v.1h0m0-.1v.1m1.222-.1l-1.222-1.25a1.332 1.332 0 010-2.663h2.445a.625.625 0 100-1.25H40.1v-.1m.01 5.263c.142-.001.285.026.418.08m-.419-.08l.419.08m-.428-5.343h1.232a.725.725 0 110 1.45h-2.445a1.232 1.232 0 000 2.463h1.222v4.873h0-.009V45a.725.725 0 01-1.45 0v-1.232h-1.23a.725.725 0 010-1.45h2.69a.985.985 0 00.92-1.366.986.986 0 00-.92-.607h0-1.222m1.213-5.363V33.75a.725.725 0 00-1.45 0v1.252a2.676 2.676 0 00.237 5.343m1.64-.02c.133.054.254.134.356.235m-.355-.235l.355.235m0 0c.102.101.182.221.238.354m-.238-.354l.238.354m0 0c.055.132.083.274.083.417m-.083-.417l.083.417m0 0c0 .144-.028.286-.083.418m.083-.418l-.083.418m0 0a1.09 1.09 0 01-.238.354m.238-.354l-.238.354m0 0c-.102.1-.223.18-.355.235m.355-.235l-.355.235m0 0a1.085 1.085 0 01-.419.08l.419-.08z" fill="#fff" stroke="#fff" stroke-width=".2"/></svg>