<svg width="60" height="60" fill="none" xmlns="http://www.w3.org/2000/svg"><rect width="60" height="60" rx="2" fill="#DEC377"/><path d="M24.974 25.5H22.64v2.333h2.334V25.5zm3.5 0H26.14v2.333h2.334V25.5zm3.5 0H29.64v2.333h2.334V25.5zm3.5 0H33.14v2.333h2.334V25.5zm-10.5 4.667H22.64V32.5h2.334v-2.333zm3.5 0H26.14V32.5h2.334v-2.333zm3.5 0H29.64V32.5h2.334v-2.333zm3.5 0H33.14V32.5h2.334v-2.333zm-10.5 4.666H22.64v2.334h2.334v-2.334zm3.5 0H26.14v2.334h2.334v-2.334zm3.5 0H29.64v2.334h2.334v-2.334zm3.5 0H33.14v2.334h2.334v-2.334zm-10.5 4.667H22.64v2.333h2.334V39.5zm3.5 0H26.14v2.333h2.334V39.5zm3.5 0H29.64v2.333h2.334V39.5zm3.5 0H33.14v2.333h2.334V39.5z" fill="#fff"/><path fill-rule="evenodd" clip-rule="evenodd" d="M38.39 26.083v-2.916c0-.644-.523-1.167-1.166-1.167H20.89c-.644 0-1.166.523-1.166 1.167v2.916h-8.167c-.644 0-1.167.523-1.167 1.167v21.583c0 .644.523 1.167 1.167 1.167h25.667c.644 0 1.166-.523 1.166-1.167v-22.75zm-26.833 22.75h8.167V27.25h-8.167v21.583zm16.333 0h2.334v-3.5H27.89v3.5zm3.5 0h5.834V23.167H20.89v25.666h5.834v-4.666h4.666v4.666z" fill="#fff"/><path d="M15.057 44.167h-2.334V46.5h2.334v-2.333zm3.5 0h-2.333V46.5h2.333v-2.333zm0-4.667h-2.333v2.333h2.333V39.5zm-3.5 0h-2.334v2.333h2.334V39.5zm0-4.667h-2.334v2.334h2.334v-2.334zm3.5 0h-2.333v2.334h2.333v-2.334zm-3.5-4.666h-2.334V32.5h2.334v-2.333zm3.5 0h-2.333V32.5h2.333v-2.333z" fill="#fff"/><path fill-rule="evenodd" clip-rule="evenodd" d="M33.87 10.35a16.045 16.045 0 00-9.882 3.382 16.044 16.044 0 00-2.154 2.01 16.068 16.068 0 00-4.089 10.341h1.979v-.254h-.67a14.76 14.76 0 013.42-8.838 17.04 17.04 0 003.243 1.486A23.611 23.611 0 0024.859 22h1.318c.194-1.11.458-2.161.782-3.139 1.9.525 4.02.84 6.26.892V22h1.3v-2.247c2.24-.051 4.36-.367 6.261-.892.678 2.048 1.094 4.42 1.155 6.968H38.39v1.3h3.545c-.061 2.548-.477 4.92-1.155 6.968a23.79 23.79 0 00-2.39-.528v1.32c.67.118 1.317.263 1.938.432-.26.634-.546 1.23-.857 1.78-.338.6-.7 1.14-1.08 1.618v3.248a16.123 16.123 0 007.485-4.716l.005-.005a16.066 16.066 0 004.118-10.766 16.062 16.062 0 00-4.157-10.808 16.401 16.401 0 00-2.975-2.58 16.11 16.11 0 00-4.795-2.188 16.152 16.152 0 00-4.203-.554zm6.734 27.39c.356-.632.681-1.313.973-2.037 1.033.353 1.972.774 2.795 1.247a14.819 14.819 0 01-5.937 3.643c.816-.777 1.545-1.748 2.169-2.854zm1.419-3.259a17.03 17.03 0 013.244 1.488 14.717 14.717 0 001.42-2.026l.026-.044a14.753 14.753 0 001.972-6.77h-5.45c-.06 2.662-.492 5.166-1.212 7.352zM44.37 16.01a14.922 14.922 0 00-2.228-1.839 14.807 14.807 0 00-2.055-1.157h-.002a14.493 14.493 0 00-1.647-.646c.815.777 1.543 1.747 2.166 2.852.356.631.681 1.312.973 2.037a16.042 16.042 0 002.793-1.247zm-4.041 1.628c-.26-.634-.547-1.23-.858-1.78-1.365-2.421-3.115-3.873-4.951-4.152v6.748c2.085-.05 4.052-.34 5.808-.816zm-7.11.816v-6.748c-1.836.279-3.586 1.73-4.951 4.152-.31.55-.597 1.146-.857 1.78 1.756.476 3.723.766 5.808.816zm-7.057-1.197c.292-.725.617-1.406.973-2.037.624-1.106 1.352-2.076 2.168-2.853a14.717 14.717 0 00-4.518 2.394c-.499.385-.971.803-1.416 1.249.822.473 1.76.893 2.793 1.247zm15.86 1.221a17.04 17.04 0 003.244-1.486 14.751 14.751 0 013.419 8.838h-5.45c-.06-2.661-.492-5.165-1.212-7.352z" fill="#fff"/></svg>