<svg width="60" height="60" fill="none" xmlns="http://www.w3.org/2000/svg"><rect width="60" height="60" rx="2" fill="#DEC377"/><circle cx="30" cy="30" r="18.25" stroke="#fff" stroke-width="1.5"/><path d="M33.623 27.812a6.117 6.117 0 013.165 2.205 6.057 6.057 0 011.217 3.642v6.093H22.174v-6.093a6.07 6.07 0 011.217-3.642 6.134 6.134 0 013.165-2.205l.35-.101.263.254a4.191 4.191 0 004.497.879 4.208 4.208 0 001.347-.879l.26-.254.35.1zm-3.532-8.059a4.26 4.26 0 013.018 1.252l.002.003a4.26 4.26 0 011.252 3.017c0 1.18-.48 2.25-1.252 3.02a4.262 4.262 0 01-3.02 1.252 4.254 4.254 0 01-3.018-1.251l-.002-.003a4.266 4.266 0 010-6.038 4.262 4.262 0 013.02-1.252zm2.139 2.134a3.026 3.026 0 00-5.16 2.138c0 .836.339 1.593.882 2.136l.003.003c.544.544 1.3.882 2.136.882a3.01 3.01 0 002.136-.885 3.027 3.027 0 00.003-4.275zm1.41 16.616l-.014-2.497a.623.623 0 011.246-.003l.014 2.5h1.873V33.66a4.796 4.796 0 00-.965-2.893 4.907 4.907 0 00-2.197-1.648A5.418 5.418 0 0128.05 30a5.512 5.512 0 01-1.46-.88 4.907 4.907 0 00-2.196 1.647 4.815 4.815 0 00-.965 2.893v4.844h1.881l-.014-2.497a.623.623 0 011.246-.003l.014 2.5h7.087-.002z" fill="#fff"/><path fill-rule="evenodd" clip-rule="evenodd" d="M21 23c.764 0 1.454.31 1.954.81l.003.002a2.763 2.763 0 010 3.911.544.544 0 01.191.026c.608.18 1.157.508 1.6.94a6.18 6.18 0 00-.943.827 2.602 2.602 0 00-1.004-.565.622.622 0 01-.422-.774l-.003-.006a2.771 2.771 0 01-1.375.367c-.5 0-.972-.133-1.38-.37v.003a.627.627 0 01-.421.774 2.613 2.613 0 00-1.347.94 2.58 2.58 0 00-.515 1.546v2.59h.593l-.006-1.208a.623.623 0 011.246-.003l.006 1.214h2.993v1.246h-6.08v-3.84c0-.855.286-1.653.769-2.295a3.848 3.848 0 011.994-1.387.639.639 0 01.194-.026l-.003-.003a2.759 2.759 0 010-3.91c.5-.5 1.194-.81 1.957-.81zm1.076 1.694A1.528 1.528 0 0021 24.252a1.516 1.516 0 00-1.075 2.59l.002.002a1.516 1.516 0 002.145-.003 1.525 1.525 0 00.003-2.147zM39 23c.764 0 1.454.31 1.954.81l.003.002a2.763 2.763 0 010 3.911.544.544 0 01.191.026 3.882 3.882 0 011.994 1.387c.483.642.77 1.437.77 2.295v3.839H38v-1.246h2.83l-.006-1.208a.623.623 0 011.246-.003l.006 1.214h.587v-2.59c0-.58-.194-1.119-.515-1.546a2.624 2.624 0 00-1.347-.94.622.622 0 01-.422-.774l-.003-.006a2.771 2.771 0 01-1.375.367c-.5 0-.972-.133-1.38-.37v.003a.627.627 0 01-.421.774 2.575 2.575 0 00-.914.487 6.15 6.15 0 00-.962-.813c.43-.4.953-.702 1.529-.87a.64.64 0 01.194-.026l-.003-.003a2.758 2.758 0 010-3.91c.5-.5 1.193-.81 1.956-.81zm1.076 1.694A1.528 1.528 0 0039 24.252a1.516 1.516 0 00-1.075 2.59l.002.002a1.516 1.516 0 002.145-.003 1.525 1.525 0 00.003-2.147z" fill="#fff"/></svg>