<svg width="60" height="60" fill="none" xmlns="http://www.w3.org/2000/svg"><rect width="60" height="60" rx="2" fill="#DEC377"/><path d="M45.88 22.328l.176-.048-.08-.163a17.836 17.836 0 00-3.385-4.708A17.69 17.69 0 0030 12.194a17.69 17.69 0 00-12.59 5.215A17.69 17.69 0 0012.193 30a17.69 17.69 0 005.215 12.59A17.69 17.69 0 0030 47.807c3.085 0 6.05-.78 8.671-2.246l.003-.001a5.666 5.666 0 002.464-6.818l-.05-.137h-.002a5.634 5.634 0 00-1.788-2.381c-.466-.363-1.25-.685-2.19-.748l-.176-.011.017.175a3.526 3.526 0 01-3.506 3.853 3.526 3.526 0 01-3.522-3.522 3.526 3.526 0 013.522-3.522c.94 0 1.793.37 2.426.972l.05.049.07-.008c.486-.055.974-.06 1.46-.013h0c.3.03.596.08.886.148l.314.073-.145-.287-1.061-2.099a12.172 12.172 0 01-1.255-6.515l.008-.09-.076-.05a3.521 3.521 0 01-1.621-2.961 3.526 3.526 0 013.522-3.522 3.526 3.526 0 013.522 3.522 3.526 3.526 0 01-3.208 3.507l-.13.011-.006.132c-.088 2.13.397 3.716 1.19 5.284l.173.344.105-.37c.082-.295.183-.586.303-.871.619-1.459 1.687-2.673 3.119-3.554l.077-.048-.006-.09a3.496 3.496 0 01.453-1.99c.462-.814 1.354-1.443 2.267-1.694zm1.004 1.99l-.045-.134-.137.038-.42.115a1.47 1.47 0 00-.893.695 1.48 1.48 0 001.676 2.156h0l.369-.101.131-.037-.023-.134a17.665 17.665 0 00-.658-2.597zM43 37.883h0l.001.003a7.701 7.701 0 01.504 3.301l-.031.466.297-.36a17.673 17.673 0 004.02-11.993l-.007-.19-.182.05a3.514 3.514 0 01-3.55-1.047l-.089-.098-.108.076c-.91.632-1.596 1.452-2.003 2.411l.138.059-.138-.059c-.53 1.25-.545 2.642-.052 4.022l.131-.047-.131.047 1.2 3.358zM30 10.15a19.72 19.72 0 0114.036 5.814A19.72 19.72 0 0149.85 30a19.72 19.72 0 01-5.814 14.036A19.72 19.72 0 0130 49.85a19.72 19.72 0 01-14.036-5.814A19.72 19.72 0 0110.15 30a19.72 19.72 0 015.814-14.036A19.72 19.72 0 0130 10.15zm8.02 10.039a1.48 1.48 0 00-1.477 1.478 1.48 1.48 0 001.478 1.478 1.48 1.48 0 001.478-1.478 1.48 1.48 0 00-1.478-1.479zm-3.1 15.78a1.48 1.48 0 00-1.477-1.477 1.48 1.48 0 00-1.478 1.478 1.48 1.48 0 001.478 1.478 1.48 1.48 0 001.478-1.478z" fill="#fff" stroke="#DEC377" stroke-width=".3"/><path d="M18.968 32.233v-.15h-.15l-1.244.004-.589.002h-.099l-.007-2.043h.1l.59-.002 1.25-.005h.149v-9.166h5.535a5.69 5.69 0 013.992 1.63h0a5.501 5.501 0 011.694 3.966c0 1.494-.601 2.902-1.694 3.966a5.695 5.695 0 01-3.992 1.63c-.564 0-1.971.004-3.342.008l-.15.001v2.475h.151c.685-.003 1.814-.005 2.77-.007l1.23-.002h.363v2.044h-.363l-1.23.002-2.77.006h-.15v2.534h-2.044V36.6h-.15l-1.244.005-.589.002h-.099l-.007-2.043h.1l.59-.003 1.25-.004h.149v-2.324zm2.194-9.315h-.15v7.113h.15c1.37-.005 2.777-.009 3.341-.009 1.972 0 3.642-1.621 3.642-3.552 0-1.93-1.67-3.552-3.642-3.552h-3.341z" fill="#fff" stroke="#DEC377" stroke-width=".3"/></svg>