<svg width="60" height="60" fill="none" xmlns="http://www.w3.org/2000/svg"><path d="M54 .738H18c-3.415 0-6.277 2.77-6.277 6.277v6.462c0 .37.277.738.738.738.462 0 .739-.277.739-.738V7.015c0-2.677 2.215-4.892 4.892-4.892h.923c2.677 0 4.893 2.215 4.893 4.892v5.539c0 .37.277.738.738.738h2.77a.728.728 0 00.738-.738c0-.462-.277-.739-.739-.739h-2.123V6.923c0-1.938-.923-3.692-2.307-4.892h31.2c2.861 0 3.969 2.492 3.969 4.892v4.892H27.415a.728.728 0 00-.738.739c0 .461.277.738.738.738h24.093v39.97c0 2.676-2.216 4.892-4.893 4.892-2.677 0-4.892-2.216-4.892-4.893v-5.538a.728.728 0 00-.738-.738H13.2v-3.97a.728.728 0 00-.739-.738c-.461 0-.738.277-.738.738v3.97h-4.8a.728.728 0 00-.738.738v5.538c0 3.416 2.769 6.277 6.276 6.277h34.154c3.416 0 6.277-2.769 6.277-6.276V13.2h5.816a.728.728 0 00.738-.739V6.923C59.354 3.138 57.231.738 54 .738zM12.462 57.97c-2.677 0-4.893-2.215-4.893-4.892v-4.892h32.77v4.892c0 1.938.922 3.692 2.307 4.892H12.462z" fill="#000" fill-opacity=".8"/><path d="M28.154 32.585H48.46c.37 0 .739-.277.739-.739 0-.461-.277-.738-.739-.738H28.154a.728.728 0 00-.739.738c0 .462.37.739.739.739zm-.647-5.355c0 .37.277.74.739.74h20.308a.729.729 0 00.738-.74c0-.46-.277-.738-.739-.738H28.247c-.462.093-.739.37-.739.739zm9.878-3.968H48.46c.37 0 .739-.277.739-.739 0-.462-.277-.738-.739-.738H37.385a.728.728 0 00-.739.738c0 .462.37.739.739.739zm0-4.616H48.46c.37 0 .739-.277.739-.738 0-.462-.277-.739-.739-.739H37.385a.728.728 0 00-.739.739c0 .461.37.738.739.738zM28.154 37.2H48.46c.37 0 .739-.277.739-.739 0-.461-.277-.738-.739-.738H28.154a.728.728 0 00-.739.739c0 .461.37.738.739.738zm0 4.615H48.46c.37 0 .739-.276.739-.738 0-.462-.277-.738-.739-.738H28.154a.728.728 0 00-.739.738c0 .462.37.738.739.738zM12.461 39.97c3.231 0 6.185-1.293 8.308-3.416a11.722 11.722 0 003.415-8.308c0-6.461-5.261-11.815-11.815-11.815-6.554 0-11.63 5.261-11.63 11.723 0 6.461 5.26 11.815 11.722 11.815zm7.847-4.985l-6.093-6.093h8.677c-.277 2.308-1.2 4.431-2.584 6.093zm2.492-7.477h-9.6v-9.693c5.169.37 9.23 4.431 9.6 9.693zm-10.985-9.693v10.339c0 .092 0 .184.093.277 0 .092.092.184.184.184l7.292 7.293c-1.846 1.569-4.246 2.584-6.83 2.584-5.723 0-10.431-4.615-10.431-10.43 0-5.354 4.246-9.877 9.692-10.247z" fill="#000" fill-opacity=".8"/></svg>