<svg width="60" height="60" fill="none" xmlns="http://www.w3.org/2000/svg"><path d="M20.558 39.209v-.089l-.078-.043A19.688 19.688 0 0110.234 21.75c0-10.9 8.869-19.77 19.77-19.77 10.9 0 19.769 8.87 19.769 19.77a19.688 19.688 0 01-10.246 17.328l-.078.043v5.332h0v5.875h-.005v4.07H33.7l-.008.142a3.706 3.706 0 01-3.694 3.48 3.706 3.706 0 01-3.694-3.48l-.009-.141h-5.747v-5.875h.006v-4.07h.004v-5.245zm1.95 7.048h-.15v2.267h15.288v-2.267H22.507zm5.76 8.142h-.172l.024.17c.117.83.81 1.648 1.878 1.648a1.9 1.9 0 001.879-1.649l.022-.17h-3.63zm9.222-1.804h.15v-2.267H22.352v2.267H37.49zm.005-8.2h.15v-6.373l.493-.25c6.064-3.085 9.83-9.225 9.83-16.023 0-9.906-8.058-17.966-17.965-17.966-9.906 0-17.965 8.06-17.965 17.966a17.898 17.898 0 009.83 16.022l.494.251v6.374h6.736V28.638l-.044-.044-6.24-6.24a.902.902 0 010-1.276l-.106-.106.106.106a.902.902 0 011.275 0l5.805 5.805.106.106.106-.106 5.804-5.805a.902.902 0 011.276 1.276l-6.24 6.24-.044.044v15.758h6.593z" fill="#000" fill-opacity=".8" stroke="#fff" stroke-width=".3"/><path d="M34.653 9.26c0-.499.404-.902.902-.902 1.291 0 3.167.665 4.721 1.98 1.55 1.313 2.766 3.26 2.766 5.816a.902.902 0 11-1.804 0c0-1.983-.998-3.483-2.2-4.482-1.195-.995-2.611-1.51-3.483-1.51a.902.902 0 01-.902-.903zM5.926 22.86a.902.902 0 110 1.805h-4.77a.902.902 0 110-1.804h4.77zM8.72 8.622h0L5.348 5.249h0a.902.902 0 00-1.276 0L8.72 8.622zm0 0a.902.902 0 010 1.275V8.622zM4.072 6.525h0l3.373 3.372a.899.899 0 001.275 0L4.072 6.525zm0 0a.902.902 0 010-1.276v1.276zm1.275 35.751h0a.898.898 0 01-1.275 0 .902.902 0 010-1.275l3.373-3.373s0 0 0 0a.902.902 0 011.275 0h0a.902.902 0 010 1.276s0 0 0 0l-3.373 3.372zM54.074 22.86h4.77a.902.902 0 110 1.805h-4.77a.902.902 0 010-1.804zM52.555 9.897s0 0 0 0l3.373-3.372a.902.902 0 00-1.276-1.276l-2.097 4.648zm0 0a.9.9 0 01-1.276 0 .902.902 0 010-1.275s0 0 0 0l3.373-3.373-2.097 4.648zm-.001 27.731h0a.902.902 0 00-1.275 0h0a.902.902 0 000 1.276h0l3.373 3.372h0a.898.898 0 001.275 0l-3.373-4.648zm0 0l3.373 3.373a.902.902 0 010 1.275l-3.373-4.648z" fill="#000" fill-opacity=".8" stroke="#fff" stroke-width=".3"/></svg>