<svg width="60" height="60" fill="none" xmlns="http://www.w3.org/2000/svg"><path d="M47.315 8.101h.288l-.226-.178A27.944 27.944 0 0030.01 1.9C14.513 1.9 1.905 14.508 1.905 30.005a.9.9 0 11-1.8 0C.105 13.515 13.52.1 30.01.1c6.959 0 13.6 2.4 18.939 6.788l.163.135V1a.9.9 0 111.8 0v8.9h-.79v0l-.011.001a.858.858 0 01-.174 0h0-7.925a.9.9 0 110-1.8h5.303z" fill="#000" fill-opacity=".8" stroke="#fff" stroke-width=".2"/><path d="M8.106 30.005c0-12.078 9.826-21.904 21.904-21.904s21.904 9.826 21.904 21.904-9.826 21.904-21.904 21.904S8.106 42.083 8.106 30.005zm1.8 0c0 11.085 9.019 20.103 20.104 20.103 11.085 0 20.103-9.018 20.103-20.103S41.095 9.902 30.01 9.902 9.907 18.92 9.907 30.005z" fill="#000" fill-opacity=".8" stroke="#fff" stroke-width=".2"/><path d="M30.91 14.002a.9.9 0 11-1.8 0v-2a.9.9 0 111.8 0v2zm-1.8 32.006a.9.9 0 111.8 0v2a.9.9 0 11-1.8 0v-2zm18.903-15.103h-2a.9.9 0 110-1.8h2a.9.9 0 110 1.8zm-36.006-1.8h2a.9.9 0 110 1.8h-2a.9.9 0 110-1.8zm18.903-3.959v.078l.075.019c1.678.436 2.926 1.95 2.926 3.762 0 2.151-1.75 3.9-3.9 3.9a3.853 3.853 0 01-1.97-.553l-.066-.04-.055.056-8.275 8.275a.897.897 0 01-1.273 0 .9.9 0 010-1.273l8.275-8.275.055-.055-.04-.067a3.848 3.848 0 01-.553-1.968c0-1.812 1.248-3.326 2.926-3.762l.075-.02v-5.22a.9.9 0 111.8 0v5.143zm-3 3.859c0 1.158.942 2.1 2.1 2.1a2.101 2.101 0 10-2.1-2.1zM6.948 47.598h0a.886.886 0 01-.522.17.906.906 0 01-.531-1.638.915.915 0 011.26.206.908.908 0 01-.207 1.262zm2.782 3.139h0a.906.906 0 011.237-.083v.01l.033.03a.897.897 0 01.053 1.268.924.924 0 01-.667.288.9.9 0 01-.657-1.512zm49.3-20.512h.001c.494.017.882.43.864.937a.903.903 0 01-.9.863h0-.001 0-.001 0-.001 0-.001 0-.001 0-.001 0-.001 0-.001 0-.001 0-.001 0-.001 0-.001 0-.001 0-.001 0-.001 0-.001 0-.001 0-.001 0-.001 0-.001 0-.001 0-.001 0-.001 0-.001 0-.001 0-.001 0-.001 0-.001 0-.001 0-.001 0-.001 0-.001 0-.001 0-.001 0-.001 0-.001 0-.001 0-.001 0a.903.903 0 01-.863-.936.903.903 0 01.937-.864zM1.805 36.838h0l-.007.002a.659.659 0 01-.183.016.884.884 0 01-.872-.709h0v-.003a.89.89 0 01.692-1.061h.002a.889.889 0 011.06.693h0v.002a.888.888 0 01-.692 1.06zm2.01 5.646h0l-.002.002a.854.854 0 01-.358.081.917.917 0 01-.828-.542.905.905 0 01.458-1.186.906.906 0 011.189.458.906.906 0 01-.459 1.188zm48.407 4.726h0v-.001a.893.893 0 011.26-.162.892.892 0 01.163 1.258v.001a.897.897 0 01-.711.352.93.93 0 01-.56-.19.9.9 0 01-.152-1.258zm-4.113 5.462a.9.9 0 111.368-1.168.9.9 0 11-1.368 1.168zM59.018 37.27v.002a.903.903 0 01-1.088.657.918.918 0 01-.659-1.1.918.918 0 011.099-.657.905.905 0 01.648 1.098zM14.421 54.473h0l.002-.003a.896.896 0 111.538.918v.001a.893.893 0 01-.775.441.86.86 0 01-.457-.124h0l-.002-.002a.895.895 0 01-.306-1.231zM56.49 41.867h.001a.9.9 0 01-.397 1.711.877.877 0 01-.395-.09h0a.909.909 0 01-.415-1.208.904.904 0 011.207-.413zM26.567 57.899h0a.893.893 0 01.783.997v.001a.895.895 0 01-.89.793h-.001 0-.001 0-.001 0-.001 0-.001 0-.001 0-.001 0-.001 0-.001 0-.001 0-.001 0-.001 0-.001 0-.001 0-.001 0-.001 0-.001 0-.001 0-.001 0-.001 0v0l-.09-.01a.886.886 0 01-.782-.998h0a.892.892 0 01.999-.783zm-5.651-1.295h.001a.898.898 0 01-.289 1.745c-.097 0-.196-.017-.3-.045a.902.902 0 01-.555-1.142h0a.893.893 0 011.143-.558zm17.152.332h.002a.906.906 0 011.126.593.904.904 0 01-.603 1.125.905.905 0 01-1.126-.604h0a.887.887 0 01.601-1.114zm-6.519 2.045h0v-.001a.899.899 0 01.818-.972.907.907 0 01.973.828h0v.002a.883.883 0 01-.818.961l-.093.007v.003a.902.902 0 01-.88-.828zm11.879-4.284h.002a.883.883 0 011.213.359h0l.001.002a.884.884 0 01-.36 1.213h0l-.004.003a.803.803 0 01-.419.115.887.887 0 01-.792-.475h0v-.003a.885.885 0 01.359-1.214z" fill="#000" fill-opacity=".8" stroke="#fff" stroke-width=".2"/></svg>