<svg width="60" height="60" fill="none" xmlns="http://www.w3.org/2000/svg"><path d="M56.911 11.405a2.827 2.827 0 00.828-1.965c0-.724-.31-1.449-.828-1.966L52.566 3.13c-1.034-1.034-3-1.034-4.034 0l-4.345 4.345-6.93 6.724a16.911 16.911 0 00-7.242-1.655c-2.587 0-5.07.62-7.242 1.655l-6.827-6.827L11.6 3.026c-1.035-1.035-2.897-1.035-4.035 0L3.118 7.37c-1.138 1.138-1.138 2.896 0 4.034l4.345 4.345 6.828 6.828a16.911 16.911 0 00-1.656 7.241c0 2.586.621 5.069 1.656 7.241l-8.173 8.173c-.103.103-.103.207-.207.31l-3.62 11.172c-.104.31 0 .621.206.828a.79.79 0 00.518.207h.207l10.965-3.62c.104 0 .207-.104.31-.208l8.173-8.172a16.911 16.911 0 007.241 1.655c2.587 0 5.07-.62 7.242-1.655l8.172 8.172c.103.104.207.104.31.207l10.966 3.621h.207a.79.79 0 00.517-.207c.207-.207.31-.517.207-.828l-3.62-10.965c0-.103-.104-.207-.208-.31l-8.172-8.173a16.912 16.912 0 001.655-7.241c0-2.586-.62-5.07-1.655-7.241l6.828-6.828 4.551-4.552zM49.67 4.06a1.311 1.311 0 011.862 0l4.345 4.345a1.311 1.311 0 010 1.862l-3.828 3.828-6.207-6.207L49.67 4.06zm-4.966 4.966l2.587 2.586-5.587 5.586c-.93-.827-1.862-1.551-2.896-2.172l5.896-6zm-26.379 8.172l-5.586-5.586 2.586-2.586 6 6c-1.138.62-2.069 1.345-3 2.172zM4.153 8.508l4.344-4.344c.207-.207.518-.414.932-.414.413 0 .62.103.93.414l3.828 3.827-6.207 6.207-3.827-3.93c-.518-.518-.518-1.346 0-1.76zm4.965 6.725l2.586-2.586 5.587 5.586c-.828.93-1.552 1.862-2.173 2.896l-6-5.896zm6 23.38c.62 1.034 1.345 2.068 2.173 2.896l-6.931 7.034-2.587-2.586 7.345-7.345zM4.256 55.68l2.793-8.276 5.586 5.586-8.379 2.69zm9.724-3.517l-2.586-2.586 6.931-6.931c.931.827 1.862 1.551 2.897 2.172l-7.242 7.345zm27.724-9.517l6.931 6.93-2.586 2.587-7.345-7.345c1.138-.62 2.07-1.345 3-2.172zm5.794 10.24l5.586-5.585 2.793 8.276-8.38-2.69zm4.758-6.93l-2.586 2.586-6.931-6.93c.827-.932 1.552-1.863 2.172-2.898l7.345 7.242zm-22.241-.207c-8.69 0-15.724-7.035-15.724-15.828s7.034-15.724 15.724-15.724c8.69 0 15.827 7.035 15.827 15.828S38.704 45.75 30.015 45.75zM44.91 21.233c-.62-1.035-1.345-2.07-2.172-2.897l5.586-5.586 2.586 2.586-6 5.897z" fill="#000" fill-opacity=".8"/><path d="M30.015 16.785c-7.242 0-13.138 5.896-13.138 13.24a13.09 13.09 0 0013.138 13.139c7.241 0 13.241-5.897 13.241-13.138s-6-13.241-13.241-13.241zm0 24.827a11.567 11.567 0 01-11.586-11.586c0-6.414 5.172-11.69 11.586-11.69 6.414 0 11.69 5.173 11.69 11.69 0 6.517-5.276 11.586-11.69 11.586z" fill="#000" fill-opacity=".8"/><path d="M30.635 28.68a.223.223 0 01-.207-.206V24.75c0-.104 0-.207.104-.207.103 0 .207-.104.207 0 .62.31 1.138.724 1.241 1.448l1.966-.207c-.207-.827-.518-1.448-1.035-1.862-.62-.517-1.345-.827-2.38-.93a.222.222 0 01-.206-.208v-.724h-.931v.724a.222.222 0 01-.207.207c-1.035.104-1.862.518-2.483 1.138-.62.62-.93 1.448-.93 2.483 0 2.069 1.137 3.414 3.517 4.034.103 0 .206.104.206.207v4.035c0 .103 0 .207-.103.207s-.207.103-.207 0c-.414-.207-.724-.518-1.035-.931-.31-.31-.413-.724-.62-1.242l-2.07.207c.415 2.276 1.656 3.414 3.829 3.724.103 0 .206.104.206.207v.828h.931v-.931c0-.104.104-.207.207-.207 1.138-.207 2.173-.62 2.793-1.345.725-.724 1.035-1.655 1.035-2.793 0-1.035-.31-1.862-.931-2.483-.414-.517-1.345-1.034-2.897-1.448zm-1.034-.62c0 .104 0 .207-.104.207h-.206c-.932-.414-1.449-1.034-1.449-1.965 0-.414.104-.828.414-1.138.31-.31.62-.621 1.035-.725h.206c.104 0 .104.104.104.207v3.414zm2.483 6.414c-.31.414-.828.62-1.345.724-.104 0-.104 0-.207-.103-.104 0-.104-.104-.104-.207v-3.724c0-.104 0-.207.104-.207.103 0 .103-.104.207 0 1.241.31 1.862 1.034 1.862 2.069.103.517-.104 1.034-.517 1.448z" fill="#000" fill-opacity=".8"/></svg>